
<svg width="50px" height="50px" viewBox="0 0 24.00 24.00" fill="none" xmlns="http://www.w3.org/2000/svg" transform="rotate(90)matrix(1, 0, 0, -1, 0, 0)">

<g id="SVGRepo_bgCarrier" stroke-width="0" transform="translate(1.92,1.92), scale(0.84)">

<rect x="0" y="0" width="24.00" height="24.00" rx="6.24" fill="#F8C2D5" strokewidth="0"/>

</g>

<g id="SVGRepo_tracerCarrier" stroke-linecap="round" stroke-linejoin="round" stroke="#CCCCCC" stroke-width="0.8160000000000001"/>

<g id="SVGRepo_iconCarrier"> <path d="M2 12C2 7.28595 2 4.92893 3.46447 3.46447C4.92893 2 7.28595 2 12 2C16.714 2 19.0711 2 20.5355 3.46447C22 4.92893 22 7.28595 22 12C22 16.714 22 19.0711 20.5355 20.5355C19.0711 22 16.714 22 12 22C7.28595 22 4.92893 22 3.46447 20.5355C2 19.0711 2 16.714 2 12Z" stroke="#000000" stroke-width="1.9200000000000004"/> <path d="M7 18V9" stroke="#000000" stroke-width="1.9200000000000004" stroke-linecap="round"/> <path d="M12 18V6" stroke="#000000" stroke-width="1.9200000000000004" stroke-linecap="round"/> <path d="M17 18V13" stroke="#000000" stroke-width="1.9200000000000004" stroke-linecap="round"/> </g>

</svg>